<svg xmlns="http://www.w3.org/2000/svg" width="128.000000pt" height="128.000000pt" viewBox="0 0 128.000000 128.000000" preserveAspectRatio="xMidYMid meet"><g transform="translate(0.000000,128.000000) scale(0.100000,-0.100000)" fill="#000000" stroke="none"><path d="M635 1150 c-3 -6 4 -28 16 -50 26 -45 25 -46 -42 -162 l-40 -68 -109 0 -109 0 -23 40 c-13 22 -31 40 -40 40 -23 0 -23 -18 2 -55 11 -16 20 -36 20 -44 0 -7 -23 -53 -50 -102 l-51 -88 -52 -3 c-38 -2 -52 -7 -52 -18 0 -11 14 -16 52 -18 l52 -3 51 -88 c27 -49 50 -95 50 -102 0 -8 -9 -27 -20 -44 -25 -37 -25 -55 -2 -55 9 0 27 18 40 40 l23 40 109 0 108 0 51 -87 c28 -49 51 -93 51 -100 0 -6 -9 -28 -21 -47 -20 -34 -19 -56 1 -56 6 0 21 18 35 40 l25 40 110 0 110 0 25 -40 c14 -22 29 -40 35 -40 20 0 20 22 -1 60 -26 45 -25 47 42 161 l39 68 53 3 c38 2 52 7 52 18 0 11 -14 16 -52 18 l-52 3 -50 91 c-28 50 -51 95 -51 101 0 5 23 49 51 98 l51 88 51 3 c38 2 52 7 52 18 0 11 -14 16 -52 18 l-53 3 -39 68 c-67 114 -68 116 -42 161 21 38 21 60 1 60 -6 0 -21 -18 -35 -40 l-25 -40 -110 0 -110 0 -25 40 c-26 40 -39 48 -50 30z m297 -127 c23 -28 98 -160 98 -174 0 -6 -23 -52 -51 -100 l-51 -89 -121 0 -122 0 -59 -105 -60 -105 -107 0 -107 0 -51 89 c-28 49 -51 94 -51 101 0 7 23 52 51 101 l51 89 108 0 108 0 37 -65 c34 -62 65 -85 65 -47 0 9 -14 40 -30 67 -16 28 -30 56 -30 63 0 15 74 147 98 175 12 14 32 17 112 17 80 0 99 -3 112 -17z m47 -492 c28 -49 51 -94 51 -101 0 -13 -75 -145 -98 -172 -13 -15 -32 -18 -113 -18 -113 0 -110 -2 -175 123 l-37 72 53 93 52 92 108 0 108 0 51 -89z"></path><path d="M781 991 c-25 -16 -1 -31 49 -31 48 0 50 -1 76 -45 26 -45 54 -60 54 -27 0 9 -14 38 -30 65 -30 46 -31 47 -83 47 -28 0 -58 -4 -66 -9z"></path><path d="M414 779 c-11 -18 8 -28 61 -31 47 -3 51 -5 73 -45 23 -43 52 -57 52 -27 0 9 -12 38 -27 65 l-28 49 -62 0 c-34 0 -65 -5 -69 -11z"></path><path d="M775 570 c-12 -20 7 -30 59 -30 50 0 54 -2 66 -29 6 -16 20 -37 31 -47 31 -28 34 7 5 65 l-26 51 -65 0 c-35 0 -67 -4 -70 -10z"></path></g></svg>