<svg xmlns="http://www.w3.org/2000/svg" width="128.000000pt" height="128.000000pt" viewBox="0 0 128.000000 128.000000" preserveAspectRatio="xMidYMid meet"><g transform="translate(0.000000,128.000000) scale(0.100000,-0.100000)" fill="#000000" stroke="none"><path d="M20 1260 c-19 -19 -20 -33 -20 -514 l0 -495 26 -20 c25 -20 40 -21 215 -21 104 0 189 -2 189 -5 0 -2 -8 -20 -17 -40 -16 -33 -20 -35 -63 -35 -61 0 -90 -21 -90 -65 0 -64 4 -65 380 -65 376 0 380 1 380 65 0 44 -29 65 -90 65 -43 0 -47 2 -63 35 -9 20 -17 38 -17 40 0 3 86 5 190 5 189 0 191 0 215 25 l25 24 0 491 c0 477 -1 491 -20 510 -20 20 -33 20 -620 20 -587 0 -600 0 -620 -20z m1209 -34 c8 -9 10 -130 9 -427 l-3 -414 -520 -5 c-453 -4 -520 -7 -520 -20 0 -13 66 -15 523 -18 l523 -2 -3 -38 -3 -37 -595 0 -595 0 -3 37 -3 37 53 3 c39 2 53 7 53 18 0 11 -14 16 -50 20 l-50 5 -3 414 c-1 297 1 418 9 427 17 21 1161 21 1178 0z m-409 -1056 l20 -40 -200 0 -200 0 20 40 20 40 160 0 160 0 20 -40z m149 -89 c8 -5 11 -16 8 -25 -6 -14 -43 -16 -337 -16 -294 0 -331 2 -337 16 -3 9 0 20 8 25 18 11 640 11 658 0z"></path><path d="M90 1129 c0 -52 2 -60 18 -57 12 2 18 14 20 40 3 35 5 37 40 40 26 2 38 8 40 21 3 15 -5 17 -57 17 l-61 0 0 -61z"></path><path d="M1072 1173 c2 -13 14 -19 40 -21 35 -3 37 -5 40 -40 2 -26 8 -38 21 -40 15 -3 17 5 17 57 l0 61 -61 0 c-52 0 -60 -2 -57 -17z"></path><path d="M453 1062 c-28 -17 -283 -319 -283 -334 0 -22 59 -70 140 -112 202 -107 458 -107 660 0 81 42 140 90 140 112 0 17 -259 320 -285 335 -9 5 -36 -5 -71 -24 -79 -45 -149 -45 -228 -1 -63 36 -57 34 -73 24z m70 -69 c73 -38 161 -38 235 0 l54 28 37 -43 c156 -178 211 -244 208 -253 -7 -19 -127 -87 -199 -112 -100 -35 -267 -43 -371 -18 -106 26 -273 112 -265 137 3 9 240 287 246 288 1 0 26 -12 55 -27z"></path><path d="M90 491 l0 -61 61 0 c52 0 60 2 57 18 -2 12 -14 18 -40 20 -35 3 -37 5 -40 40 -2 26 -8 38 -20 40 -16 3 -18 -5 -18 -57z"></path><path d="M1157 543 c-4 -3 -7 -21 -7 -39 0 -31 -2 -33 -37 -36 -27 -2 -39 -8 -41 -20 -3 -16 5 -18 57 -18 l61 0 0 60 c0 43 -4 60 -13 60 -8 0 -17 -3 -20 -7z"></path></g></svg>