<svg xmlns="http://www.w3.org/2000/svg" width="128.000000pt" height="128.000000pt" viewBox="0 0 128.000000 128.000000" preserveAspectRatio="xMidYMid meet"><g transform="translate(0.000000,128.000000) scale(0.100000,-0.100000)" fill="#000000" stroke="none"><path d="M363 1266 c-172 -42 -316 -190 -352 -364 -7 -34 -11 -207 -11 -477 l0 -425 620 0 620 0 0 248 c0 236 1 250 20 267 14 13 20 31 20 62 0 39 -2 43 -24 43 -24 0 -24 1 -19 73 11 148 -55 316 -169 428 -70 69 -189 132 -282 148 -80 15 -358 12 -423 -3z m38 -63 c-76 -46 -179 -153 -212 -222 l-24 -51 -52 0 c-52 0 -52 0 -43 25 52 136 164 236 305 271 86 21 92 15 26 -23z m375 26 c202 -36 366 -200 410 -409 20 -97 12 -200 -16 -200 -16 0 -18 10 -18 93 0 197 -96 354 -267 437 -315 151 -675 -78 -675 -431 0 -226 161 -419 384 -461 52 -10 66 -16 66 -30 0 -22 -34 -23 -109 -3 -170 45 -310 178 -361 343 -25 80 -27 215 -4 293 52 177 190 313 364 358 86 23 142 25 226 10z m37 -96 c26 -8 47 -17 47 -20 0 -3 -12 -27 -27 -54 -25 -45 -31 -49 -53 -42 -32 10 -157 10 -192 0 -25 -6 -30 -3 -53 34 -41 64 -41 65 12 83 87 28 176 28 266 -1z m-320 -92 l27 -50 -49 -46 c-113 -106 -131 -270 -43 -397 42 -59 121 -113 186 -126 l41 -8 3 -62 c3 -73 1 -74 -97 -43 -82 26 -138 60 -194 120 -136 145 -155 363 -47 529 35 55 114 131 135 132 6 0 22 -22 38 -49z m481 -2 c39 -36 67 -74 93 -127 37 -73 38 -80 38 -181 l0 -106 -67 -3 -67 -3 11 31 c15 44 4 151 -21 202 -22 46 -61 93 -99 120 -23 15 -23 17 -8 42 9 14 23 37 31 51 9 14 19 25 24 25 5 0 34 -23 65 -51z m-207 -62 c97 -36 170 -129 180 -231 7 -68 -11 -126 -39 -126 -17 0 -19 4 -12 28 16 48 9 134 -13 177 -43 83 -130 131 -220 122 -202 -21 -280 -262 -128 -396 20 -17 56 -37 81 -43 31 -9 44 -17 44 -30 0 -23 -33 -23 -85 1 -84 38 -143 113 -159 204 -16 87 35 206 108 256 73 49 171 64 243 38z m-12 -86 c97 -44 134 -141 93 -243 l-10 -28 -158 0 -157 0 -11 25 c-17 37 -15 121 4 162 41 85 151 124 239 84z m-609 -17 c-17 -46 -25 -158 -16 -225 6 -39 13 -75 16 -80 3 -5 -20 -9 -50 -9 l-56 0 0 143 c0 188 0 187 62 187 42 0 49 -3 44 -16z m924 -314 c0 -19 -7 -20 -215 -20 -166 0 -224 3 -250 14 -19 8 -35 17 -35 20 0 4 113 6 250 6 243 0 250 -1 250 -20z m168 3 c-3 -15 -16 -19 -66 -21 -47 -2 -62 0 -62 11 0 23 11 27 72 27 51 0 59 -2 56 -17z m-1046 -105 c40 -76 134 -173 208 -216 l55 -32 -207 0 -208 0 0 155 0 155 59 0 60 0 33 -62z m838 -188 l0 -230 -165 0 -165 0 0 223 c0 123 3 227 7 230 3 4 78 7 165 7 l158 0 0 -230z m168 -2 l2 -228 -65 0 -65 0 0 223 c0 123 3 227 7 231 4 4 32 6 63 4 l55 -3 3 -227z m-538 -163 l0 -65 -310 0 -310 0 0 58 c0 32 3 62 7 65 3 4 143 7 310 7 l303 0 0 -65z"></path><path d="M667 1114 c-16 -16 -7 -44 14 -44 15 0 20 5 17 22 -3 22 -19 33 -31 22z"></path><path d="M580 1090 c0 -13 7 -20 20 -20 13 0 20 7 20 20 0 13 -7 20 -20 20 -13 0 -20 -7 -20 -20z"></path><path d="M742 1093 c5 -26 38 -29 38 -4 0 15 -6 21 -21 21 -14 0 -19 -5 -17 -17z"></path><path d="M80 100 c0 -13 7 -20 20 -20 13 0 20 7 20 20 0 13 -7 20 -20 20 -13 0 -20 -7 -20 -20z"></path><path d="M170 99 c0 -14 5 -19 17 -17 26 5 29 38 4 38 -15 0 -21 -6 -21 -21z"></path><path d="M250 100 c0 -13 7 -20 20 -20 13 0 20 7 20 20 0 13 -7 20 -20 20 -13 0 -20 -7 -20 -20z"></path><path d="M330 100 c0 -13 7 -20 20 -20 13 0 20 7 20 20 0 13 -7 20 -20 20 -13 0 -20 -7 -20 -20z"></path></g></svg>