<svg xmlns="http://www.w3.org/2000/svg" width="128.000000pt" height="128.000000pt" viewBox="0 0 128.000000 128.000000" preserveAspectRatio="xMidYMid meet"><g transform="translate(0.000000,128.000000) scale(0.100000,-0.100000)" fill="#000000" stroke="none"><path d="M603 1265 c-12 -8 -25 -29 -28 -47 l-7 -31 -13 30 c-18 43 -48 58 -86 43 -37 -16 -45 -47 -29 -116 12 -49 11 -56 -5 -74 -15 -17 -31 -20 -92 -20 -116 0 -163 -29 -163 -100 0 -42 47 -90 89 -90 l30 0 -30 -57 c-16 -32 -33 -87 -39 -123 -11 -79 -1 -165 20 -165 12 0 14 14 12 75 -3 78 21 183 53 224 14 19 15 18 15 -15 0 -68 54 -109 117 -88 36 12 57 43 68 102 6 31 11 37 32 37 51 0 81 -27 99 -88 9 -33 26 -67 40 -80 27 -24 72 -29 105 -12 26 14 52 68 46 96 -5 30 10 19 35 -24 18 -29 18 -30 -18 -77 -29 -37 -34 -49 -23 -56 9 -5 24 1 45 22 37 36 44 27 44 -49 0 -26 4 -53 9 -61 13 -21 31 -3 31 31 0 26 2 29 15 18 12 -10 19 -10 27 -2 9 9 4 20 -19 44 -17 18 -34 44 -38 58 -13 44 -46 104 -81 147 l-35 42 52 15 c60 18 67 15 106 -47 19 -30 27 -61 34 -135 5 -54 14 -137 20 -187 6 -49 15 -127 19 -173 7 -85 11 -98 29 -87 15 9 14 106 -4 204 -8 46 -17 131 -21 190 -7 128 -16 167 -49 215 l-26 38 26 20 c37 29 48 63 34 105 -15 47 -56 66 -123 58 -42 -6 -56 -3 -74 12 -22 17 -22 21 -11 64 15 57 6 97 -26 109 -36 14 -73 -4 -89 -42 l-14 -31 -7 31 c-7 33 -38 62 -65 62 -9 0 -25 -7 -37 -15z m61 -41 c3 -9 6 -31 6 -49 0 -24 6 -38 21 -45 30 -16 44 -7 57 38 16 53 39 73 57 49 10 -14 10 -27 -2 -68 -12 -42 -13 -52 -1 -66 7 -9 13 -26 13 -37 0 -23 9 -24 108 -11 48 7 60 5 77 -10 24 -21 26 -58 5 -75 -8 -7 -45 -19 -81 -26 -37 -8 -87 -23 -111 -34 -36 -16 -44 -23 -38 -37 15 -38 26 -98 21 -120 -7 -25 -37 -37 -71 -29 -19 5 -28 18 -41 63 -20 67 -57 109 -107 118 l-35 7 20 35 c28 47 59 60 104 44 31 -11 39 -10 76 11 44 25 49 45 8 40 -14 -2 -50 -3 -80 -3 -96 2 -142 -42 -181 -174 -26 -85 -47 -110 -83 -101 -42 10 -50 42 -31 116 19 75 46 130 88 183 25 33 28 43 22 75 -14 68 -11 106 6 110 12 2 22 -11 35 -45 22 -62 27 -67 58 -59 22 5 26 12 26 45 0 52 8 71 30 71 10 0 21 -7 24 -16z m-297 -269 l-22 -55 -51 0 c-58 0 -76 14 -76 57 0 39 26 53 103 53 l67 0 -21 -55z"></path><path d="M410 598 c0 -13 5 -40 11 -61 7 -28 7 -53 -2 -92 -14 -62 -7 -94 16 -75 7 6 15 23 17 37 3 22 7 19 46 -36 32 -46 42 -69 42 -100 0 -42 16 -63 31 -40 5 8 6 22 3 32 -6 18 11 24 21 7 3 -5 15 -15 26 -20 15 -8 21 -7 25 4 4 10 -15 35 -56 73 l-62 57 31 9 c44 11 34 31 -18 35 -38 3 -44 7 -59 40 -8 20 -21 62 -27 92 -8 37 -17 56 -28 58 -12 3 -17 -3 -17 -20z"></path><path d="M250 476 c0 -51 89 -194 173 -280 185 -188 411 -245 576 -144 39 24 91 101 91 135 0 39 -24 25 -50 -29 -21 -45 -34 -57 -84 -83 -53 -27 -69 -30 -150 -30 -85 0 -96 3 -166 37 -136 68 -252 184 -322 326 -37 74 -68 105 -68 68z"></path></g></svg>