<svg xmlns="http://www.w3.org/2000/svg" width="128.000000pt" height="128.000000pt" viewBox="0 0 128.000000 128.000000" preserveAspectRatio="xMidYMid meet"><g transform="translate(0.000000,128.000000) scale(0.100000,-0.100000)" fill="#000000" stroke="none"><path d="M792 1267 c-5 -7 -28 -46 -52 -87 -24 -41 -44 -77 -46 -79 -2 -2 -24 19 -49 47 -117 130 -318 160 -463 68 -168 -106 -223 -314 -130 -488 87 -163 281 -232 464 -166 27 10 36 8 68 -12 36 -22 38 -22 51 -4 8 11 17 27 20 36 5 15 10 16 27 7 11 -6 21 -9 23 -7 1 2 24 45 49 96 38 77 50 91 61 82 8 -6 35 -15 62 -18 45 -7 50 -11 80 -60 32 -55 58 -162 52 -216 -3 -23 -11 -32 -34 -40 -16 -6 -147 -13 -289 -16 l-259 -5 -19 -26 c-17 -23 -18 -30 -8 -50 7 -13 18 -27 24 -31 6 -4 125 -8 264 -8 138 0 252 -3 252 -6 0 -19 -46 -64 -92 -89 l-53 -30 -241 -5 c-176 -4 -245 -8 -257 -18 -38 -32 -27 -110 19 -131 17 -8 152 -11 435 -11 l410 0 24 25 c34 33 34 83 0 115 -24 23 -24 23 -6 49 148 210 118 511 -67 681 -134 123 -154 138 -204 154 -15 4 -12 14 23 75 22 39 38 75 35 80 -3 5 -42 29 -85 54 -58 32 -83 42 -89 34z m-285 -67 c59 -25 153 -117 153 -150 0 -18 -3 -19 -20 -10 -17 9 -29 -4 -121 -141 -93 -140 -100 -153 -84 -165 17 -12 16 -15 -3 -48 l-21 -35 42 -25 41 -25 -29 -11 c-33 -13 -119 -15 -166 -5 -115 25 -219 129 -244 244 -20 92 4 201 59 274 31 41 114 98 166 115 54 17 167 9 227 -18z m373 -15 c34 -21 39 -29 30 -41 -11 -12 -19 -10 -61 13 -46 25 -58 41 -42 57 9 8 21 4 73 -29z m-51 -65 l50 -31 -19 -32 c-26 -44 -86 -90 -108 -82 -9 3 -27 13 -39 23 l-22 17 40 68 c22 37 42 67 44 67 3 0 27 -14 54 -30z m-132 -161 c48 -28 54 -34 49 -58 -3 -14 1 -42 8 -61 11 -33 10 -40 -27 -115 -22 -44 -41 -82 -43 -84 -2 -2 -49 22 -104 54 -66 38 -99 62 -96 71 8 22 146 224 153 224 3 0 30 -14 60 -31z m248 5 c29 -19 48 -72 40 -107 -16 -63 -96 -93 -152 -58 -83 52 -48 181 49 181 21 0 50 -7 63 -16z m204 -195 c110 -165 110 -384 0 -548 l-41 -61 -110 0 -111 0 54 55 c30 30 60 55 67 55 42 0 80 88 50 118 -8 8 -11 38 -10 85 3 85 -15 157 -57 231 l-30 54 24 22 c25 23 25 23 46 4 36 -31 86 -116 103 -174 22 -75 20 -177 -5 -252 -16 -49 -18 -63 -7 -69 30 -19 58 58 65 183 4 70 1 100 -16 156 -20 65 -82 166 -124 201 -9 7 -17 25 -17 38 l0 25 39 -32 c22 -17 58 -58 80 -91z m-589 -110 c47 -27 67 -45 63 -55 -3 -8 -10 -14 -15 -14 -10 0 -138 69 -138 75 0 9 13 35 17 35 2 0 35 -18 73 -41z m460 -284 c15 -18 10 -45 -12 -59 -35 -22 -74 27 -48 59 16 19 44 19 60 0z m-110 -25 c0 -19 -7 -20 -235 -20 -228 0 -235 1 -235 20 0 19 7 20 235 20 228 0 235 -1 235 -20z m258 -258 c8 -52 11 -52 -424 -52 -353 0 -405 2 -418 16 -9 8 -16 21 -16 28 0 35 17 36 440 34 l415 -3 3 -23z"></path><path d="M305 1148 c-6 -13 -20 -27 -32 -33 -28 -12 -31 -45 -4 -45 25 0 81 56 81 81 0 27 -33 24 -45 -3z"></path><path d="M480 1110 c0 -13 7 -20 20 -20 13 0 20 7 20 20 0 13 -7 20 -20 20 -13 0 -20 -7 -20 -20z"></path><path d="M150 1050 c0 -13 7 -20 20 -20 13 0 20 7 20 20 0 13 -7 20 -20 20 -13 0 -20 -7 -20 -20z"></path><path d="M179 971 c-31 -32 -38 -71 -18 -115 11 -24 62 -56 89 -56 7 0 27 7 45 15 94 45 60 185 -45 185 -33 0 -48 -6 -71 -29z m113 -28 c10 -9 18 -27 18 -40 0 -28 -33 -63 -60 -63 -26 0 -60 34 -60 62 0 50 63 76 102 41z"></path><path d="M230 900 c0 -13 7 -20 20 -20 13 0 20 7 20 20 0 13 -7 20 -20 20 -13 0 -20 -7 -20 -20z"></path><path d="M460 939 c0 -14 5 -19 17 -17 26 5 29 38 4 38 -15 0 -21 -6 -21 -21z"></path><path d="M330 740 c0 -13 7 -20 20 -20 13 0 20 7 20 20 0 13 -7 20 -20 20 -13 0 -20 -7 -20 -20z"></path><path d="M210 729 c0 -18 21 -53 44 -71 29 -24 56 -23 56 2 0 11 -7 20 -15 20 -9 0 -24 13 -33 30 -16 28 -52 42 -52 19z"></path><path d="M846 925 c-25 -25 -20 -72 9 -91 31 -21 53 -15 79 19 19 26 19 30 5 55 -18 33 -68 42 -93 17z m57 -32 c9 -9 -13 -34 -24 -27 -14 8 -11 34 4 34 8 0 17 -3 20 -7z"></path></g></svg>